<?xml version="1.0" standalone="no"?>
<!DOCTYPE svg PUBLIC "-//W3C//DTD SVG 20010904//EN"
 "http://www.w3.org/TR/2001/REC-SVG-20010904/DTD/svg10.dtd">
<svg version="1.0" xmlns="http://www.w3.org/2000/svg"
 width="16.000000pt" height="16.000000pt" viewBox="0 0 16.000000 16.000000"
 preserveAspectRatio="xMidYMid meet">
<metadata>
Created by potrace 1.11, written by Peter Selinger 2001-2013
</metadata>
<g transform="translate(0.000000,16.000000) scale(0.006154,-0.006154)"
fill="#000000" stroke="none">
<path d="M1140 2451 c0 -31 4 -33 68 -46 65 -13 63 37 60 -1109 -3 -1001 -4
-1035 -22 -1055 -38 -42 -63 -25 -125 81 -44 76 -88 108 -147 108 -34 0 -51
-6 -76 -29 -31 -27 -33 -34 -33 -94 0 -77 18 -109 81 -141 57 -31 204 -29 296
2 168 58 335 226 384 387 28 93 33 237 34 1005 l0 766 -22 44 c-31 61 -84 87
-208 100 -52 5 -139 10 -192 10 l-98 0 0 -29z"/>
</g>
</svg>
